<svg xmlns="http://www.w3.org/2000/svg" xmlns:xlink="http://www.w3.org/1999/xlink" width="192" zoomAndPan="magnify" viewBox="0 0 144 143.999998" height="192" preserveAspectRatio="xMidYMid meet" version="1.2"><g id="4a5e95d723"><path style=" stroke:none;fill-rule:nonzero;fill:#ffffff;fill-opacity:1;" d="M 97.550781 33.671875 L 95.730469 47.253906 C 95.507812 48.917969 94.425781 50.335938 92.886719 50.996094 L 43.207031 72.277344 C 39.8125 73.734375 36.125 70.933594 36.617188 67.273438 L 38.4375 53.691406 C 38.660156 52.027344 39.742188 50.605469 41.28125 49.945312 L 90.957031 28.664062 C 94.355469 27.210938 98.042969 30.011719 97.550781 33.671875 Z M 73.628906 63.632812 L 23.949219 84.917969 C 22.410156 85.578125 21.328125 87 21.105469 88.660156 L 19.285156 102.242188 C 18.796875 105.902344 22.480469 108.703125 25.875 107.25 L 75.554688 85.964844 C 77.09375 85.304688 78.175781 83.886719 78.394531 82.222656 L 80.21875 68.640625 C 80.707031 64.980469 77.023438 62.179688 73.628906 63.632812 Z M 117.71875 71.386719 L 68.039062 92.667969 C 66.5 93.328125 65.417969 94.75 65.195312 96.410156 L 63.375 109.996094 C 62.886719 113.65625 66.570312 116.457031 69.964844 115 L 119.644531 93.71875 C 121.183594 93.058594 122.265625 91.636719 122.488281 89.976562 L 124.308594 76.394531 C 124.800781 72.730469 121.113281 69.929688 117.71875 71.386719 Z M 117.71875 71.386719 "/></g></svg>