<svg xmlns="http://www.w3.org/2000/svg" xmlns:xlink="http://www.w3.org/1999/xlink" width="500" zoomAndPan="magnify" viewBox="0 0 375 374.999991" height="500" preserveAspectRatio="xMidYMid meet" version="1.2"><g id="206a8b6134"><path style=" stroke:none;fill-rule:nonzero;fill:#a087ff;fill-opacity:1;" d="M 6.8125 239.253906 C 25.785156 147.160156 110.121094 89.835938 201.828125 106.324219 C 111.789062 93.097656 30.558594 150.542969 14.957031 240.796875 Z M 6.8125 239.253906 "/><path style=" stroke:none;fill-rule:nonzero;fill:#a087ff;fill-opacity:1;" d="M 0.570312 207.089844 C 35.246094 119.691406 128.257812 77.882812 215.707031 110.046875 C 129.332031 81.382812 39.363281 123.851562 8.328125 210.023438 Z M 0.570312 207.089844 "/><path style=" stroke:none;fill-rule:nonzero;fill:#a087ff;fill-opacity:1;" d="M 0.0117188 174.328125 C 49.335938 94.28125 148.195312 69.257812 228.730469 116.117188 C 148.648438 72.890625 52.667969 99.09375 7.140625 178.566406 Z M 0.0117188 174.328125 "/><path style=" stroke:none;fill-rule:nonzero;fill:#a087ff;fill-opacity:1;" d="M 5.148438 141.972656 C 67.625 71.703125 169.324219 64.226562 240.5 124.359375 C 169.140625 67.882812 70.070312 77.019531 11.433594 147.382812 Z M 5.148438 141.972656 "/><path style=" stroke:none;fill-rule:nonzero;fill:#a087ff;fill-opacity:1;" d="M 15.828125 110.996094 C 89.558594 52.644531 191.011719 62.941406 250.664062 134.519531 C 190.191406 66.511719 91.042969 58.304688 21.078125 117.414062 Z M 15.828125 110.996094 "/><path style=" stroke:none;fill-rule:nonzero;fill:#a087ff;fill-opacity:1;" d="M 31.722656 82.34375 C 114.464844 37.683594 212.589844 65.441406 258.90625 146.292969 C 211.164062 68.816406 114.941406 43.515625 35.777344 89.578125 Z M 31.722656 82.34375 "/><path style=" stroke:none;fill-rule:nonzero;fill:#a087ff;fill-opacity:1;" d="M 52.351562 56.890625 C 141.59375 27.277344 233.40625 71.648438 264.976562 159.316406 C 231.414062 74.726562 141.050781 33.101562 55.089844 64.71875 Z M 52.351562 56.890625 "/><path style=" stroke:none;fill-rule:nonzero;fill:#a087ff;fill-opacity:1;" d="M 77.085938 35.40625 C 170.113281 21.738281 252.828125 81.378906 268.695312 173.195312 C 250.332031 84.0625 168.570312 27.378906 78.421875 43.589844 Z M 77.085938 35.40625 "/><path style=" stroke:none;fill-rule:nonzero;fill:#a087ff;fill-opacity:1;" d="M 105.175781 18.539062 C 199.164062 21.234375 270.265625 94.335938 269.949219 187.511719 C 267.34375 96.542969 196.664062 26.523438 105.074219 26.832031 Z M 105.175781 18.539062 "/><path style=" stroke:none;fill-rule:nonzero;fill:#a087ff;fill-opacity:1;" d="M 135.769531 6.8125 C 227.863281 25.785156 285.1875 110.121094 268.695312 201.828125 C 281.925781 111.789062 224.480469 30.558594 134.226562 14.957031 Z M 135.769531 6.8125 "/><path style=" stroke:none;fill-rule:nonzero;fill:#a087ff;fill-opacity:1;" d="M 167.933594 0.570312 C 255.332031 35.246094 297.140625 128.257812 264.976562 215.707031 C 293.640625 129.332031 251.171875 39.363281 165 8.328125 Z M 167.933594 0.570312 "/><path style=" stroke:none;fill-rule:nonzero;fill:#a087ff;fill-opacity:1;" d="M 200.695312 0.0117188 C 280.742188 49.335938 305.765625 148.195312 258.90625 228.730469 C 302.132812 148.648438 275.929688 52.667969 196.457031 7.140625 Z M 200.695312 0.0117188 "/><path style=" stroke:none;fill-rule:nonzero;fill:#a087ff;fill-opacity:1;" d="M 233.050781 5.148438 C 303.320312 67.625 310.796875 169.324219 250.664062 240.5 C 307.140625 169.140625 298.003906 70.070312 227.640625 11.433594 Z M 233.050781 5.148438 "/><path style=" stroke:none;fill-rule:nonzero;fill:#a087ff;fill-opacity:1;" d="M 264.027344 15.828125 C 322.378906 89.558594 312.082031 191.011719 240.5 250.664062 C 308.511719 190.191406 316.71875 91.042969 257.605469 21.078125 Z M 264.027344 15.828125 "/><path style=" stroke:none;fill-rule:nonzero;fill:#a087ff;fill-opacity:1;" d="M 292.675781 31.722656 C 337.339844 114.464844 309.582031 212.589844 228.730469 258.90625 C 306.207031 211.164062 331.507812 114.941406 285.445312 35.777344 Z M 292.675781 31.722656 "/><path style=" stroke:none;fill-rule:nonzero;fill:#a087ff;fill-opacity:1;" d="M 318.132812 52.351562 C 347.746094 141.59375 303.371094 233.40625 215.707031 264.976562 C 300.296875 231.414062 341.921875 141.050781 310.304688 55.089844 Z M 318.132812 52.351562 "/><path style=" stroke:none;fill-rule:nonzero;fill:#a087ff;fill-opacity:1;" d="M 339.617188 77.085938 C 353.285156 170.113281 293.644531 252.828125 201.828125 268.695312 C 290.960938 250.332031 347.640625 168.570312 331.433594 78.421875 Z M 339.617188 77.085938 "/><path style=" stroke:none;fill-rule:nonzero;fill:#a087ff;fill-opacity:1;" d="M 356.480469 105.175781 C 353.789062 199.164062 280.6875 270.265625 187.511719 269.949219 C 278.480469 267.34375 348.5 196.664062 348.191406 105.074219 Z M 356.480469 105.175781 "/><path style=" stroke:none;fill-rule:nonzero;fill:#a087ff;fill-opacity:1;" d="M 368.210938 135.769531 C 349.238281 227.863281 264.902344 285.1875 173.195312 268.695312 C 263.234375 281.925781 344.464844 224.480469 360.0625 134.226562 Z M 368.210938 135.769531 "/><path style=" stroke:none;fill-rule:nonzero;fill:#a087ff;fill-opacity:1;" d="M 374.453125 167.933594 C 339.777344 255.332031 246.765625 297.140625 159.316406 264.976562 C 245.6875 293.640625 335.660156 251.171875 366.695312 165 Z M 374.453125 167.933594 "/><path style=" stroke:none;fill-rule:nonzero;fill:#a087ff;fill-opacity:1;" d="M 375.011719 200.695312 C 325.683594 280.742188 226.828125 305.765625 146.292969 258.90625 C 226.375 302.132812 322.355469 275.929688 367.882812 196.457031 Z M 375.011719 200.695312 "/><path style=" stroke:none;fill-rule:nonzero;fill:#a087ff;fill-opacity:1;" d="M 369.875 233.050781 C 307.398438 303.320312 205.695312 310.796875 134.519531 250.664062 C 205.882812 307.140625 304.953125 298.003906 363.589844 227.640625 Z M 369.875 233.050781 "/><path style=" stroke:none;fill-rule:nonzero;fill:#a087ff;fill-opacity:1;" d="M 359.195312 264.027344 C 285.464844 322.378906 184.011719 312.082031 124.359375 240.5 C 184.828125 308.511719 283.980469 316.71875 353.945312 257.605469 Z M 359.195312 264.027344 "/><path style=" stroke:none;fill-rule:nonzero;fill:#a087ff;fill-opacity:1;" d="M 343.300781 292.675781 C 260.558594 337.339844 162.433594 309.582031 116.117188 228.730469 C 163.859375 306.207031 260.078125 331.507812 339.246094 285.445312 Z M 343.300781 292.675781 "/><path style=" stroke:none;fill-rule:nonzero;fill:#a087ff;fill-opacity:1;" d="M 322.671875 318.132812 C 233.429688 347.746094 141.617188 303.371094 110.046875 215.707031 C 143.605469 300.296875 233.972656 341.921875 319.933594 310.304688 Z M 322.671875 318.132812 "/><path style=" stroke:none;fill-rule:nonzero;fill:#a087ff;fill-opacity:1;" d="M 297.9375 339.617188 C 204.910156 353.285156 122.195312 293.644531 106.324219 201.828125 C 124.6875 290.960938 206.453125 347.640625 296.601562 331.433594 Z M 297.9375 339.617188 "/><path style=" stroke:none;fill-rule:nonzero;fill:#a087ff;fill-opacity:1;" d="M 269.84375 356.480469 C 175.859375 353.789062 104.757812 280.6875 105.074219 187.511719 C 107.679688 278.480469 178.359375 348.5 269.949219 348.191406 Z M 269.84375 356.480469 "/><path style=" stroke:none;fill-rule:nonzero;fill:#a087ff;fill-opacity:1;" d="M 239.253906 368.210938 C 147.160156 349.238281 89.835938 264.902344 106.324219 173.195312 C 93.097656 263.234375 150.542969 344.464844 240.796875 360.0625 Z M 239.253906 368.210938 "/><path style=" stroke:none;fill-rule:nonzero;fill:#a087ff;fill-opacity:1;" d="M 207.089844 374.453125 C 119.691406 339.777344 77.878906 246.765625 110.046875 159.316406 C 81.382812 245.6875 123.851562 335.660156 210.023438 366.695312 Z M 207.089844 374.453125 "/><path style=" stroke:none;fill-rule:nonzero;fill:#a087ff;fill-opacity:1;" d="M 174.328125 375.011719 C 94.28125 325.683594 69.257812 226.828125 116.117188 146.292969 C 72.890625 226.375 99.09375 322.355469 178.566406 367.882812 Z M 174.328125 375.011719 "/><path style=" stroke:none;fill-rule:nonzero;fill:#a087ff;fill-opacity:1;" d="M 141.972656 369.875 C 71.703125 307.398438 64.226562 205.695312 124.359375 134.519531 C 67.882812 205.882812 77.019531 304.953125 147.382812 363.589844 Z M 141.972656 369.875 "/><path style=" stroke:none;fill-rule:nonzero;fill:#a087ff;fill-opacity:1;" d="M 110.996094 359.195312 C 52.644531 285.464844 62.941406 184.011719 134.519531 124.359375 C 66.511719 184.828125 58.304688 283.980469 117.414062 353.945312 Z M 110.996094 359.195312 "/><path style=" stroke:none;fill-rule:nonzero;fill:#a087ff;fill-opacity:1;" d="M 82.34375 343.300781 C 37.683594 260.558594 65.441406 162.433594 146.292969 116.117188 C 68.816406 163.859375 43.515625 260.078125 89.578125 339.246094 Z M 82.34375 343.300781 "/><path style=" stroke:none;fill-rule:nonzero;fill:#a087ff;fill-opacity:1;" d="M 56.890625 322.671875 C 27.277344 233.429688 71.648438 141.617188 159.316406 110.046875 C 74.726562 143.605469 33.101562 233.972656 64.71875 319.933594 Z M 56.890625 322.671875 "/><path style=" stroke:none;fill-rule:nonzero;fill:#a087ff;fill-opacity:1;" d="M 35.40625 297.9375 C 21.738281 204.910156 81.378906 122.195312 173.195312 106.324219 C 84.0625 124.6875 27.378906 206.453125 43.589844 296.601562 Z M 35.40625 297.9375 "/><path style=" stroke:none;fill-rule:nonzero;fill:#a087ff;fill-opacity:1;" d="M 18.539062 269.84375 C 21.234375 175.859375 94.335938 104.757812 187.511719 105.074219 C 96.542969 107.679688 26.523438 178.359375 26.832031 269.949219 Z M 18.539062 269.84375 "/></g></svg>