<svg width="40" height="40" viewBox="0 0 120 120" fill="none" xmlns="http://www.w3.org/2000/svg">
<rect width="120" height="120" rx="30" fill="url(#paint0_linear_405_2)"/>
<path d="M72.24 35H52.08C45.6269 35 40.2372 40.3897 40.2372 46.8428V52.8428C40.2372 59.2959 45.6269 64.6856 52.08 64.6856H72.24V73.1572C72.24 75.8778 70.1178 78.0001 67.3972 78.0001H52.08C45.6269 78.0001 40.2372 83.3898 40.2372 89.8428V89.8428C40.2372 96.2959 45.6269 101.686 52.08 101.686H85V89.8428C85 83.3898 79.6103 78.0001 73.1572 78.0001V64.6856C79.6103 64.6856 85 59.2959 85 52.8428V46.8428C85 40.3897 79.6103 35 73.1572 35H72.24Z" fill="white"/>
<defs>
<linearGradient id="paint0_linear_405_2" x1="60" y1="0" x2="60" y2="120" gradientUnits="userSpaceOnUse">
<stop stop-color="#4B0082"/>
<stop offset="1" stop-color="#7FFFD4"/>
</linearGradient>
</defs>
</svg>
