<svg xmlns="http://www.w3.org/2000/svg" xmlns:xlink="http://www.w3.org/1999/xlink" width="512" zoomAndPan="magnify" viewBox="0 0 384 383.999986" height="512" preserveAspectRatio="xMidYMid meet" version="1.2"><g id="51c1fbedb7"><path style=" stroke:none;fill-rule:nonzero;fill:#ffffff;fill-opacity:1;" d="M 260.675781 89.839844 L 255.808594 126.152344 C 255.214844 130.59375 252.324219 134.394531 248.210938 136.160156 L 115.386719 193.058594 C 106.304688 196.949219 96.453125 189.457031 97.765625 179.671875 L 102.632812 143.355469 C 103.226562 138.914062 106.117188 135.117188 110.234375 133.351562 L 243.054688 76.453125 C 252.132812 72.5625 261.988281 80.046875 260.675781 89.839844 Z M 196.714844 169.941406 L 63.894531 226.847656 C 59.777344 228.613281 56.890625 232.414062 56.296875 236.855469 L 51.429688 273.167969 C 50.113281 282.957031 59.972656 290.445312 69.046875 286.554688 L 201.867188 229.652344 C 205.984375 227.886719 208.871094 224.085938 209.464844 219.644531 L 214.335938 183.332031 C 215.648438 173.542969 205.789062 166.054688 196.714844 169.941406 Z M 314.59375 190.671875 L 181.777344 247.574219 C 177.660156 249.339844 174.769531 253.136719 174.175781 257.578125 L 169.308594 293.894531 C 167.996094 303.679688 177.851562 311.171875 186.929688 307.28125 L 319.75 250.378906 C 323.863281 248.613281 326.753906 244.8125 327.347656 240.371094 L 332.214844 204.058594 C 333.53125 194.265625 323.675781 186.78125 314.59375 190.671875 Z M 314.59375 190.671875 "/></g></svg>