<svg xmlns="http://www.w3.org/2000/svg" xmlns:xlink="http://www.w3.org/1999/xlink" width="64" zoomAndPan="magnify" viewBox="0 0 48 48" height="64" preserveAspectRatio="xMidYMid meet" version="1.2"><defs><clipPath id="8d0880a758"><path d="M 0.488281 0 L 47.507812 0 L 47.507812 47.019531 L 0.488281 47.019531 Z M 0.488281 0 "/></clipPath><clipPath id="cf31449411"><path d="M 6.625 9 L 41.152344 9 L 41.152344 38 L 6.625 38 Z M 6.625 9 "/></clipPath></defs><g id="c9ae08be8f"><g clip-rule="nonzero" clip-path="url(#8d0880a758)"><path style=" stroke:none;fill-rule:nonzero;fill:#ffffff;fill-opacity:1;" d="M 0.488281 0 L 47.511719 0 L 47.511719 47.019531 L 0.488281 47.019531 Z M 0.488281 0 "/><path style=" stroke:none;fill-rule:nonzero;fill:#000000;fill-opacity:1;" d="M 0.488281 0 L 47.511719 0 L 47.511719 47.019531 L 0.488281 47.019531 Z M 0.488281 0 "/></g><g clip-rule="nonzero" clip-path="url(#cf31449411)"><path style=" stroke:none;fill-rule:nonzero;fill:#ffffff;fill-opacity:1;" d="M 32.273438 10.988281 L 31.679688 15.414062 C 31.609375 15.953125 31.257812 16.417969 30.753906 16.632812 L 14.574219 23.5625 C 13.46875 24.035156 12.269531 23.125 12.429688 21.933594 L 13.023438 17.507812 C 13.09375 16.96875 13.445312 16.503906 13.949219 16.289062 L 30.125 9.359375 C 31.234375 8.886719 32.433594 9.796875 32.273438 10.988281 Z M 24.480469 20.746094 L 8.304688 27.679688 C 7.800781 27.894531 7.449219 28.355469 7.378906 28.898438 L 6.785156 33.320312 C 6.625 34.511719 7.824219 35.425781 8.929688 34.953125 L 25.109375 28.019531 C 25.613281 27.804688 25.964844 27.34375 26.035156 26.800781 L 26.628906 22.378906 C 26.789062 21.183594 25.589844 20.273438 24.480469 20.746094 Z M 38.839844 23.273438 L 22.664062 30.203125 C 22.160156 30.417969 21.808594 30.882812 21.738281 31.421875 L 21.144531 35.84375 C 20.984375 37.039062 22.183594 37.949219 23.289062 37.476562 L 39.46875 30.546875 C 39.96875 30.328125 40.324219 29.867188 40.394531 29.328125 L 40.988281 24.902344 C 41.148438 23.710938 39.949219 22.796875 38.839844 23.273438 Z M 38.839844 23.273438 "/></g></g></svg>